<mxfile host="app.diagrams.net" modified="2022-04-28T05:48:40.777Z" agent="5.0 (Windows NT 10.0; Win64; x64) AppleWebKit/537.36 (KHTML, like Gecko) Chrome/99.0.4844.51 Safari/537.36" etag="dFGmGBdXI8xWOO1d5Enc" version="17.2.4" type="github">
  <diagram id="piDafpqhtRUU5qUU-vj8" name="Page-1">
    <mxGraphModel dx="1185" dy="635" grid="1" gridSize="10" guides="1" tooltips="1" connect="1" arrows="1" fold="1" page="1" pageScale="1" pageWidth="827" pageHeight="1169" background="none" math="0" shadow="0">
      <root>
        <mxCell id="0" />
        <mxCell id="1" parent="0" />
        <mxCell id="6XQ8icbXRzcCpNc_v9XT-6" value="" style="edgeStyle=orthogonalEdgeStyle;shape=connector;rounded=0;sketch=1;jumpSize=6;orthogonalLoop=1;jettySize=auto;html=1;shadow=0;labelBackgroundColor=default;fontFamily=Helvetica;fontSize=11;fontColor=default;endArrow=classic;strokeColor=default;strokeWidth=1;" edge="1" parent="1" source="5cpTgLDWtTwDe1421ZuN-3" target="6XQ8icbXRzcCpNc_v9XT-5">
          <mxGeometry relative="1" as="geometry" />
        </mxCell>
        <mxCell id="5cpTgLDWtTwDe1421ZuN-3" value="" style="rounded=0;whiteSpace=wrap;html=1;shadow=0;glass=0;sketch=1;fillColor=#ffe6cc;strokeColor=#d79b00;" parent="1" vertex="1">
          <mxGeometry x="310" y="80" width="120" height="60" as="geometry" />
        </mxCell>
        <mxCell id="6XQ8icbXRzcCpNc_v9XT-8" value="" style="edgeStyle=orthogonalEdgeStyle;shape=connector;rounded=0;sketch=1;jumpSize=6;orthogonalLoop=1;jettySize=auto;html=1;shadow=0;labelBackgroundColor=default;fontFamily=Helvetica;fontSize=11;fontColor=default;endArrow=classic;strokeColor=default;strokeWidth=1;" edge="1" parent="1" source="6XQ8icbXRzcCpNc_v9XT-5" target="6XQ8icbXRzcCpNc_v9XT-7">
          <mxGeometry relative="1" as="geometry" />
        </mxCell>
        <mxCell id="6XQ8icbXRzcCpNc_v9XT-5" value="" style="whiteSpace=wrap;html=1;fillColor=#ffe6cc;strokeColor=#d79b00;rounded=0;shadow=0;glass=0;sketch=1;" vertex="1" parent="1">
          <mxGeometry x="310" y="220" width="120" height="60" as="geometry" />
        </mxCell>
        <mxCell id="6XQ8icbXRzcCpNc_v9XT-7" value="" style="rhombus;whiteSpace=wrap;html=1;fillColor=#ffe6cc;strokeColor=#d79b00;rounded=0;shadow=0;glass=0;sketch=1;" vertex="1" parent="1">
          <mxGeometry x="330" y="320" width="80" height="80" as="geometry" />
        </mxCell>
      </root>
    </mxGraphModel>
  </diagram>
</mxfile>
